<mxfile host="app.diagrams.net" modified="2022-06-19T17:33:19.409Z" agent="5.0 (Windows NT 10.0; Win64; x64) AppleWebKit/537.36 (KHTML, like Gecko) Chrome/102.0.0.0 Safari/537.36" etag="CDP-nFotz5ztDODSyVdv" version="20.0.1" type="github">
  <diagram id="TOMmvVlJ1-61H3ffFIXy" name="Diagrama">
    <mxGraphModel dx="782" dy="468" grid="1" gridSize="10" guides="1" tooltips="1" connect="1" arrows="1" fold="1" page="1" pageScale="1" pageWidth="827" pageHeight="1169" math="0" shadow="0">
      <root>
        <mxCell id="0" />
        <mxCell id="1" parent="0" />
        <mxCell id="oOr71HRaEruShUnUp-f0-2" style="edgeStyle=orthogonalEdgeStyle;rounded=0;orthogonalLoop=1;jettySize=auto;html=1;entryX=0.5;entryY=0;entryDx=0;entryDy=0;" parent="1" source="oOr71HRaEruShUnUp-f0-1" target="oOr71HRaEruShUnUp-f0-4" edge="1">
          <mxGeometry relative="1" as="geometry">
            <mxPoint x="360" y="170" as="targetPoint" />
          </mxGeometry>
        </mxCell>
        <mxCell id="oOr71HRaEruShUnUp-f0-1" value="Área de Gestion de almacenes" style="rounded=0;whiteSpace=wrap;html=1;" parent="1" vertex="1">
          <mxGeometry x="300" y="60" width="120" height="60" as="geometry" />
        </mxCell>
        <mxCell id="oOr71HRaEruShUnUp-f0-9" style="edgeStyle=orthogonalEdgeStyle;rounded=0;orthogonalLoop=1;jettySize=auto;html=1;entryX=0.5;entryY=0;entryDx=0;entryDy=0;" parent="1" source="oOr71HRaEruShUnUp-f0-4" target="oOr71HRaEruShUnUp-f0-8" edge="1">
          <mxGeometry relative="1" as="geometry" />
        </mxCell>
        <mxCell id="oOr71HRaEruShUnUp-f0-4" value="Solicitud de Stock de Productos" style="rounded=0;whiteSpace=wrap;html=1;" parent="1" vertex="1">
          <mxGeometry x="300" y="160" width="120" height="60" as="geometry" />
        </mxCell>
        <mxCell id="oOr71HRaEruShUnUp-f0-19" value="" style="edgeStyle=orthogonalEdgeStyle;rounded=0;orthogonalLoop=1;jettySize=auto;html=1;" parent="1" source="oOr71HRaEruShUnUp-f0-6" target="oOr71HRaEruShUnUp-f0-18" edge="1">
          <mxGeometry relative="1" as="geometry">
            <Array as="points">
              <mxPoint x="556" y="470" />
            </Array>
          </mxGeometry>
        </mxCell>
        <mxCell id="oOr71HRaEruShUnUp-f0-6" value="&lt;ul&gt;&lt;li&gt;&lt;b&gt;Revisión de productos.&lt;/b&gt;&lt;/li&gt;&lt;li&gt;Inspección Física del productos.&lt;/li&gt;&lt;li&gt;&lt;b&gt;Reporte de Stock de Productos&lt;/b&gt;&lt;/li&gt;&lt;/ul&gt;&lt;p&gt;&lt;/p&gt;" style="rounded=0;whiteSpace=wrap;html=1;align=left;" parent="1" vertex="1">
          <mxGeometry x="450" y="340" width="220" height="60" as="geometry" />
        </mxCell>
        <mxCell id="oOr71HRaEruShUnUp-f0-10" style="edgeStyle=orthogonalEdgeStyle;rounded=0;orthogonalLoop=1;jettySize=auto;html=1;exitX=1;exitY=0.5;exitDx=0;exitDy=0;" parent="1" source="oOr71HRaEruShUnUp-f0-8" target="oOr71HRaEruShUnUp-f0-6" edge="1">
          <mxGeometry relative="1" as="geometry">
            <mxPoint x="720" y="240" as="targetPoint" />
            <Array as="points">
              <mxPoint x="556" y="300" />
            </Array>
          </mxGeometry>
        </mxCell>
        <mxCell id="oOr71HRaEruShUnUp-f0-14" value="" style="edgeStyle=orthogonalEdgeStyle;rounded=0;orthogonalLoop=1;jettySize=auto;html=1;" parent="1" source="oOr71HRaEruShUnUp-f0-8" target="oOr71HRaEruShUnUp-f0-18" edge="1">
          <mxGeometry relative="1" as="geometry">
            <mxPoint x="240" y="490" as="targetPoint" />
            <Array as="points">
              <mxPoint x="240" y="300" />
              <mxPoint x="240" y="470" />
            </Array>
          </mxGeometry>
        </mxCell>
        <mxCell id="oOr71HRaEruShUnUp-f0-8" value="¿Si Hay Stock de Productos menor a 10 Unidades?" style="rhombus;whiteSpace=wrap;html=1;" parent="1" vertex="1">
          <mxGeometry x="290" y="250" width="140" height="100" as="geometry" />
        </mxCell>
        <mxCell id="oOr71HRaEruShUnUp-f0-11" value="SI" style="text;strokeColor=none;fillColor=none;align=left;verticalAlign=middle;spacingLeft=4;spacingRight=4;overflow=hidden;points=[[0,0.5],[1,0.5]];portConstraint=eastwest;rotatable=0;" parent="1" vertex="1">
          <mxGeometry x="443" y="270" width="80" height="20" as="geometry" />
        </mxCell>
        <mxCell id="oOr71HRaEruShUnUp-f0-15" value="No" style="text;strokeColor=none;fillColor=none;align=left;verticalAlign=middle;spacingLeft=4;spacingRight=4;overflow=hidden;points=[[0,0.5],[1,0.5]];portConstraint=eastwest;rotatable=0;" parent="1" vertex="1">
          <mxGeometry x="250" y="280" width="80" height="20" as="geometry" />
        </mxCell>
        <mxCell id="oOr71HRaEruShUnUp-f0-21" value="" style="edgeStyle=orthogonalEdgeStyle;rounded=0;orthogonalLoop=1;jettySize=auto;html=1;entryX=0.5;entryY=0;entryDx=0;entryDy=0;" parent="1" source="oOr71HRaEruShUnUp-f0-18" target="oOr71HRaEruShUnUp-f0-24" edge="1">
          <mxGeometry relative="1" as="geometry">
            <mxPoint x="370" y="580" as="targetPoint" />
          </mxGeometry>
        </mxCell>
        <mxCell id="oOr71HRaEruShUnUp-f0-18" value="Filtro de&amp;nbsp; los productos menor a 10 unidades de Stock&amp;nbsp;" style="rounded=0;whiteSpace=wrap;html=1;" parent="1" vertex="1">
          <mxGeometry x="310" y="440" width="120" height="60" as="geometry" />
        </mxCell>
        <mxCell id="oOr71HRaEruShUnUp-f0-20" value="Ingresa Datos de Productos al sistema" style="rounded=0;whiteSpace=wrap;html=1;" parent="1" vertex="1">
          <mxGeometry x="490" y="740" width="120" height="60" as="geometry" />
        </mxCell>
        <mxCell id="oOr71HRaEruShUnUp-f0-26" value="" style="edgeStyle=orthogonalEdgeStyle;rounded=0;orthogonalLoop=1;jettySize=auto;html=1;" parent="1" source="oOr71HRaEruShUnUp-f0-24" target="oOr71HRaEruShUnUp-f0-25" edge="1">
          <mxGeometry relative="1" as="geometry" />
        </mxCell>
        <mxCell id="oOr71HRaEruShUnUp-f0-24" value="Envío de Reporte de los productos menor a 10 unidades de Stock&amp;nbsp;" style="rounded=0;whiteSpace=wrap;html=1;" parent="1" vertex="1">
          <mxGeometry x="310" y="540" width="120" height="60" as="geometry" />
        </mxCell>
        <mxCell id="oOr71HRaEruShUnUp-f0-28" value="" style="edgeStyle=orthogonalEdgeStyle;rounded=0;orthogonalLoop=1;jettySize=auto;html=1;" parent="1" source="oOr71HRaEruShUnUp-f0-25" target="oOr71HRaEruShUnUp-f0-27" edge="1">
          <mxGeometry relative="1" as="geometry" />
        </mxCell>
        <mxCell id="oOr71HRaEruShUnUp-f0-25" value="Generar un orden de compra solicitada al proveedor según el reporte generado" style="rounded=0;whiteSpace=wrap;html=1;" parent="1" vertex="1">
          <mxGeometry x="310" y="640" width="120" height="70" as="geometry" />
        </mxCell>
        <mxCell id="oOr71HRaEruShUnUp-f0-31" value="" style="edgeStyle=orthogonalEdgeStyle;rounded=0;orthogonalLoop=1;jettySize=auto;html=1;" parent="1" source="oOr71HRaEruShUnUp-f0-27" edge="1">
          <mxGeometry relative="1" as="geometry">
            <mxPoint x="550" y="750" as="targetPoint" />
          </mxGeometry>
        </mxCell>
        <mxCell id="oOr71HRaEruShUnUp-f0-27" value="Establece Fecha y Hora de Recepcion" style="rounded=0;whiteSpace=wrap;html=1;" parent="1" vertex="1">
          <mxGeometry x="490" y="645" width="120" height="60" as="geometry" />
        </mxCell>
      </root>
    </mxGraphModel>
  </diagram>
</mxfile>
